<svg xmlns="http://www.w3.org/2000/svg" xmlns:xlink="http://www.w3.org/1999/xlink" viewBox="0 0 32 32" fill="#1D1D1D">
  <path d="M9 3L9 6L11 6L11 3 Z M 13 3L13 6L15 6L15 3 Z M 17 3L17 6L19 6L19 3 Z M 21 3L21 6L23 6L23 3 Z M 7 7L7 25L25 25L25 7 Z M 3 9L3 11L6 11L6 9 Z M 9 9L23 9L23 23L9 23 Z M 26 9L26 11L29 11L29 9 Z M 12.5 11C11.671875 11 11 11.671875 11 12.5C11 13.328125 11.671875 14 12.5 14C13.328125 14 14 13.328125 14 12.5C14 11.671875 13.328125 11 12.5 11 Z M 3 13L3 15L6 15L6 13 Z M 26 13L26 15L29 15L29 13 Z M 3 17L3 19L6 19L6 17 Z M 26 17L26 19L29 19L29 17 Z M 19.5 18C18.671875 18 18 18.671875 18 19.5C18 20.328125 18.671875 21 19.5 21C20.328125 21 21 20.328125 21 19.5C21 18.671875 20.328125 18 19.5 18 Z M 3 21L3 23L6 23L6 21 Z M 26 21L26 23L29 23L29 21 Z M 9 26L9 29L11 29L11 26 Z M 13 26L13 29L15 29L15 26 Z M 17 26L17 29L19 29L19 26 Z M 21 26L21 29L23 29L23 26Z" fill="#1D1D1D" />
</svg>