<?xml version="1.0" encoding="iso-8859-1"?>
<!-- Generator: Adobe Illustrator 18.1.1, SVG Export Plug-In . SVG Version: 6.00 Build 0)  -->
<svg version="1.1" id="Capa_1"
	xmlns="http://www.w3.org/2000/svg"
	xmlns:xlink="http://www.w3.org/1999/xlink" x="0px" y="0px" viewBox="0 0 200.995 200.995" style="enable-background:new 0 0 200.995 200.995;" xml:space="preserve">
	<g>
		<g>
			<path style="fill:#010002;" d="M111.005,16.717H64.935v20.36h46.071V16.717z M69.473,32.542V21.266h36.984v11.277H69.473z"/>
			<path style="fill:#010002;" d="M111.005,45.061H64.935v20.36h46.071V45.061z M69.473,60.883V49.603h36.984v11.281H69.473z"/>
			<path style="fill:#010002;" d="M111.005,72.092H64.935v20.353h46.071V72.092z M69.473,87.907V76.63h36.984v11.277
			C106.456,87.907,69.473,87.907,69.473,87.907z"/>
			<path style="fill:#010002;" d="M111.005,109.663H64.935v20.364h46.071V109.663z M69.473,125.485v-11.281h36.984v11.281
			C106.456,125.485,69.473,125.485,69.473,125.485z"/>
			<path style="fill:#010002;" d="M111.005,138.008H64.935v20.357h46.071V138.008z M69.473,153.833v-11.291h36.984v11.291H69.473z"/>
			<path style="fill:#010002;" d="M111.005,165.035H64.935v20.357h46.071V165.035z M69.473,180.857v-11.281h36.984v11.281H69.473z"/>
			<path style="fill:#010002;" d="M150.258,90.574h2.273V16.717h-22.414V0H56.728l0.293,2.942c0,3.235-2.638,5.859-5.844,5.862
			l-2.713-0.179v184.397l2.409-0.129c0.136,0,0.268-0.018,0.29-0.029c3.232,0,5.859,2.62,5.859,5.855v2.276h73.094v-11.649h22.414
			v-78.921h-2.273c-5.468,0-9.924-4.463-9.924-9.928C140.334,95.022,144.79,90.574,150.258,90.574z M53.01,188.48V13.188
			c4.384-0.78,7.759-4.252,8.432-8.65h64.137v191.916l-64.262-0.011C60.407,192.349,57.144,189.217,53.01,188.48z M135.785,100.498
			c0,7.197,5.189,13.192,12.2,14.283v70.02h-17.869v-13.249h13.184v-4.542h-13.184v-5.021h13.184v-4.531h-13.184v-4.86h13.184
			v-4.545h-13.184v-4.352h13.184v-4.545h-13.184v-5.018h13.184v-4.545h-13.184v-4.849h13.184v-4.542h-13.184V83.054h13.184v-4.545
			h-13.184v-5.018h13.184v-4.538h-13.184v-4.853h13.184v-4.538h-13.184V55.2h13.184v-4.542h-13.184v-5.014h13.184v-4.545h-13.184
			V36.25h13.184v-4.538h-13.184V21.266h17.869V86.2C140.978,87.302,135.785,93.297,135.785,100.498z"/>
		</g>
	</g>
	<g>
	</g>
	<g>
	</g>
	<g>
	</g>
	<g>
	</g>
	<g>
	</g>
	<g>
	</g>
	<g>
	</g>
	<g>
	</g>
	<g>
	</g>
	<g>
	</g>
	<g>
	</g>
	<g>
	</g>
	<g>
	</g>
	<g>
	</g>
	<g>
	</g>
</svg>
